<svg width="27" height="27" viewBox="0 0 27 27" fill="none" xmlns="http://www.w3.org/2000/svg">
<path d="M24.3008 19.9955C24.3008 20.3855 24.2141 20.7864 24.03 21.1764C23.8458 21.5664 23.6075 21.9347 23.2933 22.2814C22.7625 22.8664 22.1775 23.2889 21.5166 23.5597C20.8666 23.8305 20.1625 23.9714 19.4041 23.9714C18.2991 23.9714 17.1183 23.7114 15.8725 23.1805C14.6266 22.6497 13.3808 21.9347 12.1458 21.0355C10.9 20.1255 9.71913 19.118 8.59246 18.0022C7.47663 16.8755 6.46913 15.6947 5.56996 14.4597C4.68163 13.2247 3.96663 11.9897 3.44663 10.7655C2.92663 9.53052 2.66663 8.34969 2.66663 7.22302C2.66663 6.48635 2.79663 5.78219 3.05663 5.13219C3.31663 4.47135 3.72829 3.86469 4.30246 3.32302C4.99579 2.64052 5.75413 2.30469 6.55579 2.30469C6.85913 2.30469 7.16246 2.36969 7.43329 2.49969C7.71496 2.62969 7.96413 2.82469 8.15913 3.10635L10.6725 6.64885C10.8675 6.91969 11.0083 7.16885 11.1058 7.40719C11.2033 7.63469 11.2575 7.86219 11.2575 8.06802C11.2575 8.32802 11.1816 8.58802 11.03 8.83719C10.8891 9.08635 10.6833 9.34635 10.4233 9.60635L9.59996 10.4622C9.48079 10.5814 9.42663 10.7222 9.42663 10.8955C9.42663 10.9822 9.43746 11.058 9.45913 11.1447C9.49163 11.2314 9.52413 11.2964 9.54579 11.3614C9.74079 11.7189 10.0766 12.1847 10.5533 12.748C11.0408 13.3114 11.5608 13.8855 12.1241 14.4597C12.7091 15.0339 13.2725 15.5647 13.8466 16.0522C14.41 16.5289 14.8758 16.8539 15.2441 17.0489C15.2983 17.0705 15.3633 17.103 15.4391 17.1355C15.5258 17.168 15.6125 17.1789 15.71 17.1789C15.8941 17.1789 16.035 17.1139 16.1541 16.9947L16.9775 16.1822C17.2483 15.9114 17.5083 15.7055 17.7575 15.5755C18.0066 15.4239 18.2558 15.348 18.5266 15.348C18.7325 15.348 18.9491 15.3914 19.1875 15.4889C19.4258 15.5864 19.675 15.7272 19.9458 15.9114L23.5316 18.4572C23.8133 18.6522 24.0083 18.8797 24.1275 19.1505C24.2358 19.4214 24.3008 19.6922 24.3008 19.9955Z" stroke="black" stroke-width="1.5" stroke-miterlimit="10"/>
<path d="M20.5417 9.88542C20.5417 9.23542 20.0325 8.23875 19.2742 7.42625C18.5808 6.67875 17.66 6.09375 16.75 6.09375" stroke="black" stroke-width="1.5" stroke-linecap="round" stroke-linejoin="round"/>
<path d="M24.3333 9.88802C24.3333 5.69552 20.9425 2.30469 16.75 2.30469" stroke="#0DCB88" stroke-width="1.5" stroke-linecap="round" stroke-linejoin="round"/>
</svg>
