<svg width="21" height="20" viewBox="0 0 21 20" fill="none" xmlns="http://www.w3.org/2000/svg">
<g clip-path="url(#clip0_100_1075)">
<path d="M13.0415 4.16659C13.8555 4.32539 14.6035 4.72347 15.1899 5.30986C15.7763 5.89626 16.1744 6.64431 16.3332 7.45825M13.0415 0.833252C14.7326 1.02112 16.3095 1.7784 17.5134 2.98076C18.7173 4.18312 19.4765 5.75909 19.6665 7.44992M18.8332 14.0999V16.5999C18.8341 16.832 18.7866 17.0617 18.6936 17.2744C18.6006 17.487 18.4643 17.6779 18.2933 17.8348C18.1222 17.9917 17.9203 18.1112 17.7005 18.1855C17.4806 18.2599 17.2477 18.2875 17.0165 18.2666C14.4522 17.988 11.989 17.1117 9.82486 15.7083C7.81139 14.4288 6.10431 12.7217 4.82486 10.7083C3.41651 8.53426 2.54007 6.05908 2.26653 3.48325C2.2457 3.25281 2.27309 3.02055 2.34695 2.80127C2.4208 2.58199 2.53951 2.38049 2.6955 2.2096C2.8515 2.03871 3.04137 1.90218 3.25302 1.80869C3.46468 1.7152 3.69348 1.6668 3.92486 1.66659H6.42486C6.82928 1.6626 7.22136 1.80582 7.528 2.06953C7.83464 2.33324 8.03493 2.69946 8.09153 3.09992C8.19705 3.89997 8.39274 4.68552 8.67486 5.44159C8.78698 5.73986 8.81125 6.06401 8.74478 6.37565C8.67832 6.68729 8.52392 6.97334 8.29986 7.19992L7.24153 8.25825C8.42783 10.3445 10.1552 12.072 12.2415 13.2583L13.2999 12.1999C13.5264 11.9759 13.8125 11.8215 14.1241 11.755C14.4358 11.6885 14.7599 11.7128 15.0582 11.8249C15.8143 12.107 16.5998 12.3027 17.3999 12.4083C17.8047 12.4654 18.1744 12.6693 18.4386 12.9812C18.7029 13.2931 18.8433 13.6912 18.8332 14.0999Z" stroke="#0A1330" stroke-linecap="round" stroke-linejoin="round"/>
</g>
<defs>
<clipPath id="clip0_100_1075">
<rect width="20" height="20" fill="white" transform="translate(0.5)"/>
</clipPath>
</defs>
</svg>
