<svg width="27" height="27" viewBox="0 0 27 27" fill="none" xmlns="http://www.w3.org/2000/svg">
<path d="M24.2456 19.9955C24.2456 20.3855 24.159 20.7864 23.9748 21.1764C23.7906 21.5664 23.5523 21.9347 23.2381 22.2814C22.7073 22.8664 22.1223 23.2889 21.4615 23.5597C20.8115 23.8305 20.1073 23.9714 19.349 23.9714C18.244 23.9714 17.0631 23.7114 15.8173 23.1805C14.5715 22.6497 13.3256 21.9347 12.0906 21.0355C10.8448 20.1255 9.66395 19.118 8.53728 18.0022C7.42145 16.8755 6.41395 15.6947 5.51478 14.4597C4.62645 13.2247 3.91145 11.9897 3.39145 10.7655C2.87145 9.53052 2.61145 8.34969 2.61145 7.22302C2.61145 6.48635 2.74145 5.78219 3.00145 5.13219C3.26145 4.47135 3.67312 3.86469 4.24728 3.32302C4.94062 2.64052 5.69895 2.30469 6.50062 2.30469C6.80395 2.30469 7.10728 2.36969 7.37812 2.49969C7.65978 2.62969 7.90895 2.82469 8.10395 3.10635L10.6173 6.64885C10.8123 6.91969 10.9531 7.16885 11.0506 7.40719C11.1481 7.63469 11.2023 7.86219 11.2023 8.06802C11.2023 8.32802 11.1265 8.58802 10.9748 8.83719C10.834 9.08635 10.6281 9.34635 10.3681 9.60635L9.54478 10.4622C9.42562 10.5814 9.37145 10.7222 9.37145 10.8955C9.37145 10.9822 9.38228 11.058 9.40395 11.1447C9.43645 11.2314 9.46895 11.2964 9.49062 11.3614C9.68562 11.7189 10.0215 12.1847 10.4981 12.748C10.9856 13.3114 11.5056 13.8855 12.069 14.4597C12.654 15.0339 13.2173 15.5647 13.7915 16.0522C14.3548 16.5289 14.8206 16.8539 15.189 17.0489C15.2431 17.0705 15.3081 17.103 15.384 17.1355C15.4706 17.168 15.5573 17.1789 15.6548 17.1789C15.839 17.1789 15.9798 17.1139 16.099 16.9947L16.9223 16.1822C17.1931 15.9114 17.4531 15.7055 17.7023 15.5755C17.9515 15.4239 18.2006 15.348 18.4715 15.348C18.6773 15.348 18.894 15.3914 19.1323 15.4889C19.3706 15.5864 19.6198 15.7272 19.8906 15.9114L23.4765 18.4572C23.7581 18.6522 23.9531 18.8797 24.0723 19.1505C24.1806 19.4214 24.2456 19.6922 24.2456 19.9955Z" stroke="black" stroke-width="1.5" stroke-miterlimit="10"/>
<path d="M17.9949 8.58672H23.1949M17.9949 8.58672V3.38672V8.58672Z" stroke="#0DCB88" stroke-width="1.5" stroke-linecap="round" stroke-linejoin="round"/>
</svg>
