<svg width="21" height="20" viewBox="0 0 21 20" fill="none" xmlns="http://www.w3.org/2000/svg">
<g clip-path="url(#clip0_100_801)">
<path d="M13.834 17.5V15.8333C13.834 14.9493 13.4828 14.1014 12.8577 13.4763C12.2326 12.8512 11.3847 12.5 10.5007 12.5H4.66732C3.78326 12.5 2.93542 12.8512 2.3103 13.4763C1.68517 14.1014 1.33398 14.9493 1.33398 15.8333V17.5" stroke="#0A1330" stroke-linecap="round" stroke-linejoin="round"/>
<path d="M17.166 6.66675V11.6667" stroke="#0A1330" stroke-linecap="round" stroke-linejoin="round"/>
<path d="M19.666 9.16675H14.666" stroke="#0A1330" stroke-linecap="round" stroke-linejoin="round"/>
<path d="M7.58333 9.16667C9.42428 9.16667 10.9167 7.67428 10.9167 5.83333C10.9167 3.99238 9.42428 2.5 7.58333 2.5C5.74238 2.5 4.25 3.99238 4.25 5.83333C4.25 7.67428 5.74238 9.16667 7.58333 9.16667Z" stroke="#0A1330" stroke-linecap="round" stroke-linejoin="round"/>
</g>
<defs>
<clipPath id="clip0_100_801">
<rect width="20" height="20" fill="white" transform="translate(0.5)"/>
</clipPath>
</defs>
</svg>
