<svg width="20" height="20" viewBox="0 0 20 20" fill="none" xmlns="http://www.w3.org/2000/svg">
	<path d="M4.16602 4.16675C4.41919 3.88022 4.73209 3.65266 5.08268 3.50008C5.59064 3.31678 6.12601 3.22098 6.66602 3.21675C6.98387 3.21675 7.22535 3.20947 7.52409 3.20047C8.00856 3.18588 8.64365 3.16675 9.99935 3.16675C12.191 3.16675 12.4993 3.16675 13.3327 3.21675M4.16602 4.16675L3.83621 3.79094C3.82824 3.79794 3.82032 3.80497 3.81243 3.81204M4.16602 4.16675C3.87957 4.41813 3.65439 4.73167 3.50768 5.08341L4.16602 4.16675ZM3.81243 3.81204C4.1102 3.48187 4.47526 3.21914 4.88316 3.04162L4.89787 3.03521L4.91297 3.02977C5.47412 2.82727 6.06555 2.72144 6.6621 2.71676L6.66602 2.71673C6.97574 2.71675 7.20806 2.70975 7.50471 2.70082C7.59842 2.698 7.69856 2.69499 7.80958 2.69194C8.26959 2.6793 8.89917 2.66675 9.99935 2.66675H10.0215C12.1794 2.66675 12.5113 2.66675 13.3508 2.71694M3.81243 3.81204C3.48 4.11007 3.21818 4.47864 3.04621 4.89094L3.04258 4.89965L3.03928 4.90848C2.83117 5.46573 2.72182 6.05498 2.71614 6.64973C2.66601 7.48846 2.66602 7.82103 2.66602 9.97793V10.0001C2.66602 11.1003 2.67857 11.7298 2.6912 12.1898C2.69425 12.3009 2.69727 12.401 2.70009 12.4947C2.70902 12.7914 2.71602 13.0237 2.71602 13.3334V13.3413L2.71626 13.3491C2.73504 13.9478 2.85879 14.5385 3.08187 15.0944C3.23605 15.5229 3.48577 15.9107 3.81211 16.2284C4.11799 16.5438 4.48513 16.7934 4.89101 16.9619L4.90668 16.9684L4.92276 16.9738C5.4914 17.1658 6.08859 17.2593 6.68859 17.2503C7.52273 17.3001 7.85901 17.3001 10.0105 17.3001H10.0327C12.2175 17.3001 12.5421 17.2918 13.3816 17.2499C13.9638 17.2421 14.5405 17.1362 15.0875 16.9364L15.0875 16.9364L15.0926 16.9345C15.5194 16.7734 15.9061 16.5218 16.2263 16.197C16.5566 15.8774 16.8104 15.4872 16.9688 15.0556L16.969 15.0549C17.1688 14.5079 17.2747 13.9312 17.2825 13.349C17.3244 12.5094 17.3327 12.1849 17.3327 10.0001C17.3327 7.81678 17.3245 7.49117 17.2826 6.65292C17.2788 6.05894 17.1727 5.47002 16.969 4.91198L16.9665 4.90513L16.9638 4.89836C16.8005 4.48829 16.5501 4.11863 16.23 3.81487C15.9056 3.46564 15.5037 3.19724 15.0567 3.03132L15.0542 3.03042C14.508 2.83097 13.9322 2.725 13.3508 2.71694M3.81243 3.81204L14.8827 3.50008M13.3508 2.71694C13.3467 2.71688 13.3426 2.71683 13.3384 2.71678L13.3327 3.21675M13.3508 2.71694C13.3547 2.71717 13.3587 2.71741 13.3626 2.71765L13.3327 3.21675M13.3327 3.21675C13.8617 3.22282 14.3858 3.31862 14.8827 3.50008M14.8827 3.50008C15.2614 3.64062 15.6013 3.86912 15.8743 4.16675C16.1474 4.42273 16.3608 4.73569 16.4993 5.08341L14.8827 3.50008ZM17.7828 6.57846L17.783 6.58674L17.7835 6.595C17.8325 7.46165 17.8327 7.73037 17.8327 10.0001C17.8327 11.1292 17.8202 11.7622 17.8079 12.2221C17.805 12.3268 17.8022 12.4234 17.7995 12.5156C17.7904 12.8244 17.7828 13.0829 17.7827 13.4274C17.7672 14.0614 17.6483 14.6887 17.4306 15.2843C17.2468 15.7714 16.9579 16.212 16.5844 16.5747L16.5786 16.5803L16.5731 16.586C16.2131 16.9586 15.7731 17.2445 15.2864 17.422L15.2864 17.422L15.2809 17.424C14.6863 17.6488 14.0578 17.7704 13.4223 17.7835L13.4134 17.7837L13.4044 17.7842C12.5378 17.8333 12.2691 17.8334 9.99935 17.8334C7.72963 17.8334 7.46091 17.8333 6.59427 17.7842L6.58533 17.7837L6.57637 17.7835C5.94091 17.7704 5.31235 17.6488 4.71781 17.424L4.71413 17.4227C4.2271 17.2429 3.78641 16.9566 3.42428 16.5846L3.41893 16.5791L3.41341 16.5738C3.0408 16.2138 2.75493 15.7738 2.57742 15.2871L2.57745 15.2871L2.57538 15.2816C2.35064 14.6871 2.22907 14.0585 2.21591 13.4231L2.21572 13.4141L2.21522 13.4052C2.16616 12.5385 2.16602 12.2698 2.16602 10.0001C2.16602 7.73037 2.16616 7.46165 2.21522 6.595L2.21572 6.58606L2.21591 6.5771C2.22907 5.94164 2.35064 5.31308 2.57538 4.71854L2.57542 4.71855L2.57742 4.71305C2.75493 4.22632 3.0408 3.78632 3.41341 3.42635L3.41893 3.42102L3.42428 3.41553C3.78641 3.04356 4.2271 2.75723 4.71413 2.57749L4.71414 2.5775L4.71781 2.57612C5.31235 2.35138 5.94091 2.2298 6.57637 2.21664L6.58533 2.21646L6.59427 2.21595C7.46091 2.16689 7.72963 2.16675 9.99935 2.16675C12.2691 2.16675 12.5378 2.16689 13.4044 2.21595L13.4134 2.21646L13.4223 2.21664C14.0578 2.2298 14.6863 2.35138 15.2809 2.57612L15.2809 2.57615L15.2864 2.57815C15.7731 2.75566 16.2131 3.04153 16.5731 3.41415L16.5729 3.41428L16.5829 3.42403C16.9555 3.78878 17.2448 4.22976 17.431 4.71673C17.6491 5.31394 17.7679 5.94284 17.7828 6.57846ZM10.0003 6.22508L10.0013 6.22508C10.4978 6.22314 10.9898 6.31938 11.449 6.50826C11.9081 6.69715 12.3254 6.97495 12.6769 7.32569C13.0283 7.67643 13.3069 8.09319 13.4967 8.55199C13.6865 9.0108 13.7837 9.5026 13.7827 9.9991V10.0001C13.7827 10.7464 13.5615 11.476 13.147 12.0966C12.7325 12.7172 12.1434 13.2011 11.454 13.487C10.7646 13.773 10.006 13.8481 9.27392 13.7031C8.54184 13.558 7.86919 13.1992 7.34095 12.672C6.81272 12.1448 6.45261 11.4728 6.30612 10.741C6.15963 10.0093 6.23334 9.25046 6.51793 8.56054C6.80252 7.87063 7.28523 7.28054 7.90506 6.86486C8.52488 6.44917 9.25401 6.22654 10.0003 6.22508ZM14.1716 5.13435C14.2538 5.07941 14.3505 5.05008 14.4493 5.05008C14.582 5.05008 14.7091 5.10276 14.8029 5.19653C14.8967 5.2903 14.9494 5.41747 14.9494 5.55008C14.9494 5.64897 14.92 5.74564 14.8651 5.82787C14.8101 5.91009 14.7321 5.97418 14.6407 6.01202C14.5493 6.04987 14.4488 6.05977 14.3518 6.04047C14.2548 6.02118 14.1657 5.97356 14.0958 5.90364C14.0259 5.83371 13.9782 5.74462 13.959 5.64763C13.9397 5.55064 13.9496 5.4501 13.9874 5.35874C14.0253 5.26738 14.0893 5.18929 14.1716 5.13435ZM8.17986 12.7231C8.71843 13.083 9.35162 13.2751 9.99935 13.2751C10.4294 13.2751 10.8553 13.1904 11.2526 13.0258C11.65 12.8612 12.011 12.62 12.3151 12.3159C12.6192 12.0117 12.8605 11.6507 13.0251 11.2534C13.1896 10.856 13.2743 10.4302 13.2743 10.0001C13.2743 9.35235 13.0823 8.71916 12.7224 8.18059C12.3626 7.64202 11.8511 7.22225 11.2526 6.97438C10.6542 6.7265 9.99572 6.66164 9.36043 6.78801C8.72514 6.91438 8.14159 7.22629 7.68357 7.68431C7.22556 8.14232 6.91364 8.72587 6.78728 9.36116C6.66091 9.99645 6.72577 10.6549 6.97364 11.2534C7.22152 11.8518 7.64129 12.3633 8.17986 12.7231Z" stroke="black" />
</svg>
