<svg width="20" height="20" viewBox="0 0 20 20" fill="none" xmlns="http://www.w3.org/2000/svg">
<path d="M17.0585 2.16667V2.16662H2.9418H2.93485L2.93485 2.16657C2.84183 2.16528 2.74947 2.18233 2.66303 2.21673C2.5766 2.25114 2.49779 2.30224 2.43111 2.36711C2.36442 2.43198 2.31117 2.50935 2.27439 2.5948C2.238 2.67934 2.21844 2.77016 2.2168 2.86217V17.1377C2.21844 17.2297 2.238 17.3206 2.27439 17.4051C2.31117 17.4906 2.36442 17.5679 2.43111 17.6328C2.49779 17.6977 2.5766 17.7488 2.66303 17.7832C2.74947 17.8176 2.84183 17.8346 2.93486 17.8333L2.9418 17.8332V17.8333H17.0585H17.0654L17.0654 17.8333C17.1584 17.8346 17.2508 17.8176 17.3372 17.7832C17.4237 17.7488 17.5025 17.6977 17.5692 17.6328L17.0585 2.16667ZM17.0585 2.16667L17.0654 2.16657M17.0585 2.16667L17.0654 2.16657M17.0654 2.16657C17.1584 2.16528 17.2508 2.18233 17.3372 2.21673C17.4237 2.25114 17.5025 2.30224 17.5692 2.36711C17.6358 2.43198 17.6891 2.50935 17.7259 2.5948C17.7623 2.67933 17.7818 2.77013 17.7835 2.86213V17.1378C17.7818 17.2298 17.7623 17.3206 17.7259 17.4051C17.6891 17.4906 17.6358 17.5679 17.5692 17.6328L17.0654 2.16657ZM6.7418 16.1166H7.2418V15.6166V8.11662V7.61662H6.7418H4.2418H3.7418V8.11662V15.6166V16.1166H4.2418H6.7418ZM15.7585 16.1166H16.2585V15.6166V11.3C16.2585 10.0623 15.9339 9.08105 15.3147 8.40496C14.6929 7.72612 13.8324 7.4186 12.8926 7.41663C12.3503 7.39829 11.8132 7.52736 11.3384 7.79016C11.2653 7.83058 11.1942 7.87393 11.1251 7.92006V7.60829H10.6251H8.12513H7.62513V8.10829V8.11236V8.11657V8.12093V8.12542V8.13005V8.13482V8.13972V8.14476V8.14994V8.15525V8.16069V8.16627V8.17199V8.17783V8.18381V8.18992V8.19616V8.20254V8.20904V8.21567V8.22243V8.22932V8.23633V8.24348V8.25075V8.25814V8.26566V8.27331V8.28108V8.28897V8.29699V8.30513V8.31339V8.32177V8.33027V8.33889V8.34763V8.3565V8.36548V8.37457V8.38379V8.39312V8.40257V8.41213V8.42181V8.4316V8.4415V8.45152V8.46165V8.4719V8.48225V8.49272V8.50329V8.51398V8.52478V8.53568V8.54669V8.55781V8.56903V8.58037V8.5918V8.60335V8.61499V8.62674V8.6386V8.65056V8.66261V8.67478V8.68704V8.6994V8.71186V8.72442V8.73708V8.74984V8.7627V8.77565V8.7887V8.80184V8.81508V8.82842V8.84185V8.85537V8.86898V8.88269V8.89649V8.91038V8.92436V8.93843V8.95259V8.96684V8.98118V8.99561V9.01012V9.02472V9.0394V9.05417V9.06903V9.08397V9.09899V9.1141V9.12929V9.14456V9.15991V9.17534V9.19085V9.20645V9.22212V9.23787V9.25369V9.2696V9.28558V9.30164V9.31777V9.33398V9.35026V9.36662V9.38305V9.39955V9.41613V9.43277V9.44949V9.46628V9.48313V9.50006V9.51705V9.53412V9.55125V9.56844V9.58571V9.60304V9.62043V9.63789V9.65541V9.673V9.69065V9.70836V9.72613V9.74396V9.76186V9.77981V9.79782V9.8159V9.83403V9.85222V9.87046V9.88876V9.90712V9.92553V9.944V9.96252V9.9811V9.99972V10.0184V10.0371V10.0559V10.0748V10.0936V10.1126V10.1316V10.1506V10.1697V10.1888V10.208V10.2272V10.2464V10.2658V10.2851V10.3045V10.3239V10.3434V10.3629V10.3825V10.4021V10.4218V10.4415V10.4612V10.4809V10.5007V10.5206V10.5405V10.5604V10.5803V10.6003V10.6203V10.6404V10.6605V10.6806V10.7007V10.7209V10.7411V10.7614V10.7816V10.8019V10.8223V10.8426V10.863V10.8834V10.9039V10.9243V10.9448V10.9653V10.9859V11.0064V11.027V11.0476V11.0682V11.0889V11.1096V11.1302V11.151V11.1717V11.1924V11.2132V11.234V11.2548V11.2756V11.2964V11.3173V11.3381V11.359V11.3799V11.4008V11.4217V11.4426V11.4635V11.4845V11.5054V11.5264V11.5473V11.5683V11.5893V11.6103V11.6313V11.6523V11.6733V11.6943V11.7153V11.7363V11.7574V11.7784V11.7994V11.8204V11.8415V11.8625V11.8835V11.9045V11.9255V11.9466V11.9676V11.9886V12.0096V12.0306V12.0516V12.0726V12.0936V12.1145V12.1355V12.1565V12.1774V12.1984V12.2193V12.2402V12.2611V12.282V12.3029V12.3238V12.3446V12.3655V12.3863V12.4071V12.4279V12.4487V12.4695V12.4902V12.5109V12.5316V12.5523V12.573V12.5936V12.6143V12.6349V12.6555V12.676V12.6966V12.7171V12.7376V12.758V12.7785V12.7989V12.8193V12.8396V12.8599V12.8802V12.9005V12.9208V12.941V12.9612V12.9813V13.0014V13.0215V13.0416V13.0616V13.0816V13.1015V13.1214V13.1413V13.1611V13.1809V13.2007V13.2204V13.2401V13.2597V13.2794V13.2989V13.3184V13.3379V13.3574V13.3768V13.3961V13.4154V13.4347V13.4539V13.4731V13.4922V13.5113V13.5303V13.5493V13.5682V13.5871V13.6059V13.6247V13.6434V13.6621V13.6808V13.6993V13.7178V13.7363V13.7547V13.7731V13.7914V13.8096V13.8278V13.8459V13.864V13.882V13.9V13.9179V13.9357V13.9535V13.9712V13.9888V14.0064V14.0239V14.0414V14.0588V14.0761V14.0934V14.1106V14.1277V14.1448V14.1618V14.1787V14.1955V14.2123V14.229V14.2457V14.2623V14.2788V14.2952V14.3115V14.3278V14.344V14.3602V14.3762V14.3922V14.4081V14.4239V14.4397V14.4554V14.4709V14.4865V14.5019V14.5172V14.5325V14.5477V14.5628V14.5778V14.5928V14.6076V14.6224V14.6371V14.6517V14.6662V14.6806V14.6949V14.7092V14.7233V14.7374V14.7514V14.7653V14.7791V14.7928V14.8064V14.8199V14.8333V14.8467V14.8599V14.8731V14.8861V14.8991V14.9119V14.9247V14.9373V14.9499V14.9623V14.9747V14.987V14.9991V15.0112V15.0231V15.035V15.0467V15.0584V15.0699V15.0814V15.0927V15.1039V15.115V15.126V15.1369V15.1477V15.1584V15.169V15.1795V15.1898V15.2001V15.2102V15.2202V15.2301V15.2399V15.2496V15.2591V15.2686V15.2779V15.2871V15.2962V15.3052V15.314V15.3228V15.3314V15.3399V15.3483V15.3565V15.3647V15.3727V15.3806V15.3884V15.396V15.4035V15.4109V15.4182V15.4253V15.4323V15.4392V15.446V15.4526V15.4591V15.4655V15.4717V15.4778V15.4838V15.4896V15.4954V15.5009V15.5064V15.5117V15.5169V15.5219V15.5268V15.5316V15.5362V15.5407V15.545V15.5492V15.5533V15.5572V15.561V15.5647V15.5682V15.5716V15.5748V15.5779V15.5808V15.5836V15.5862V15.5887V15.5911V15.5933V15.5953V15.5972V15.599V15.6006V15.602V15.6033V15.6045V15.6055V15.6063V15.607V15.6076V15.608V15.6082L8.12513 15.6083H7.62513V16.1083H8.12513H10.6251H11.1251V15.6083V11.4416V11.4293L11.1245 11.4171C11.1175 11.2749 11.1366 11.1326 11.1809 10.9973C11.242 10.8314 11.352 10.6879 11.4964 10.5857C11.6419 10.4827 11.8154 10.4266 11.9937 10.425C12.3086 10.4254 12.4602 10.5296 12.5559 10.6666C12.6741 10.8357 12.7585 11.1318 12.7585 11.5916V15.6166V16.1166H13.2585H15.7585ZM4.219 7.03941C4.5499 7.37031 4.99637 7.55907 5.46354 7.5664C5.70743 7.59021 5.95373 7.5642 6.18744 7.48985C6.43012 7.41265 6.65376 7.28506 6.84371 7.11543C7.03367 6.9458 7.18565 6.73796 7.28971 6.50552C7.39377 6.27309 7.44756 6.02129 7.44756 5.76662C7.44756 5.51195 7.39377 5.26016 7.28971 5.02772C7.18565 4.79528 7.03367 4.58744 6.84372 4.41781C6.65376 4.24818 6.43012 4.12059 6.18744 4.04339C5.95373 3.96904 5.70743 3.94303 5.46354 3.96684C4.99637 3.97417 4.5499 4.16293 4.219 4.49383C3.88144 4.83139 3.6918 5.28923 3.6918 5.76662C3.6918 6.24401 3.88144 6.70185 4.219 7.03941Z" fill="#0236EF" stroke="black"/>
</svg>
