<svg width="40" height="41" viewBox="0 0 40 41" fill="none" xmlns="http://www.w3.org/2000/svg">
<path d="M0 10C0 4.47715 4.47715 0 10 0H30C35.5228 0 40 4.47715 40 10V31C40 36.5228 35.5228 41 30 41H10C4.47715 41 0 36.5228 0 31V10Z" fill="#007EBB"/>
<path d="M20.033 6H19.967C11.9771 6 5.5 12.4771 5.5 20.467V20.533C5.5 28.5229 11.9771 35 19.967 35H20.033C28.0229 35 34.5 28.5229 34.5 20.533V20.467C34.5 12.4771 28.0229 6 20.033 6Z" fill="#007EBB"/>
<path d="M12.416 15.6412C12.034 15.2866 11.844 14.8477 11.844 14.3255C11.844 13.8032 12.035 13.345 12.416 12.9894C12.7981 12.6348 13.2898 12.457 13.8923 12.457C14.4948 12.457 14.9673 12.6348 15.3483 12.9894C15.7303 13.344 15.9203 13.79 15.9203 14.3255C15.9203 14.8609 15.7293 15.2866 15.3483 15.6412C14.9662 15.9958 14.4816 16.1736 13.8923 16.1736C13.303 16.1736 12.7981 15.9958 12.416 15.6412ZM15.5992 17.6753V28.5466H12.1641V17.6753H15.5992Z" fill="#FEFFFC"/>
<path d="M27.0351 18.7583C27.7839 19.5711 28.1578 20.6867 28.1578 22.1071V28.3636H24.8954V22.548C24.8954 21.8317 24.7095 21.2749 24.3386 20.8787C23.9678 20.4824 23.4679 20.2833 22.842 20.2833C22.2162 20.2833 21.7163 20.4814 21.3454 20.8787C20.9746 21.2749 20.7887 21.8317 20.7887 22.548V28.3636H17.507V17.6539H20.7887V19.0743C21.1209 18.6008 21.569 18.2269 22.1319 17.9516C22.6947 17.6762 23.3277 17.5391 24.0318 17.5391C25.2855 17.5391 26.2873 17.9455 27.0351 18.7583Z" fill="#FEFFFC"/>
</svg>
