<svg width="40" height="41" viewBox="0 0 40 41" fill="none" xmlns="http://www.w3.org/2000/svg">
<path d="M0 10C0 4.47715 4.47715 0 10 0H30C35.5228 0 40 4.47715 40 10V31C40 36.5228 35.5228 41 30 41H10C4.47715 41 0 36.5228 0 31V10Z" fill="#E5FAFD"/>
<path d="M25 29H15C12 29 10 27.5 10 24V17C10 13.5 12 12 15 12H25C28 12 30 13.5 30 17V24C30 27.5 28 29 25 29Z" stroke="black" stroke-width="1.5" stroke-miterlimit="10" stroke-linecap="round" stroke-linejoin="round"/>
<path d="M25 17.5L21.87 20C20.84 20.82 19.15 20.82 18.12 20L15 17.5" stroke="#0DCB88" stroke-width="1.5" stroke-miterlimit="10" stroke-linecap="round" stroke-linejoin="round"/>
</svg>
