<svg width="80" height="36" viewBox="0 0 80 36" fill="none" xmlns="http://www.w3.org/2000/svg">
<path d="M29.1728 1.40321C30.2504 0.57567 31.7496 0.575669 32.8272 1.40321L33.8858 2.21615C34.0944 2.37631 34.3231 2.50836 34.5661 2.6089L35.7994 3.11919C37.0548 3.63865 37.8045 4.93702 37.6266 6.28402L37.4519 7.60726C37.4174 7.86795 37.4174 8.13205 37.4519 8.39274L37.6266 9.71598C37.8045 11.063 37.0548 12.3614 35.7994 12.8808L34.5661 13.3911C34.3231 13.4916 34.0944 13.6237 33.8858 13.7838L32.8272 14.5968C31.7496 15.4243 30.2504 15.4243 29.1728 14.5968L28.1142 13.7838C27.9056 13.6237 27.6769 13.4916 27.4339 13.3911L26.2006 12.8808C24.9452 12.3614 24.1955 11.063 24.3734 9.71598L24.5481 8.39274C24.5826 8.13205 24.5826 7.86795 24.5481 7.60726L24.3734 6.28402C24.1955 4.93702 24.9451 3.63865 26.2006 3.11919L27.4339 2.6089C27.6769 2.50836 27.9056 2.37631 28.1142 2.21615L29.1728 1.40321Z" fill="#FF891C"/>
<path d="M44.1186 13V2.81818H47.7479C48.5367 2.81818 49.1913 2.95407 49.7116 3.22585C50.2353 3.49763 50.6264 3.87382 50.8849 4.3544C51.1435 4.83168 51.2727 5.38352 51.2727 6.00994C51.2727 6.63305 51.1418 7.18158 50.88 7.65554C50.6214 8.12618 50.2304 8.49242 49.7067 8.75426C49.1863 9.0161 48.5317 9.14702 47.7429 9.14702H44.9936V7.82457H47.6037C48.1009 7.82457 48.5052 7.75331 48.8168 7.6108C49.1316 7.46828 49.362 7.26113 49.5078 6.98935C49.6536 6.71757 49.7266 6.3911 49.7266 6.00994C49.7266 5.62547 49.652 5.29238 49.5028 5.01065C49.357 4.72893 49.1267 4.51349 48.8118 4.36435C48.5002 4.21188 48.0909 4.13565 47.5838 4.13565H45.6548V13H44.1186ZM49.1449 8.40625L51.6605 13H49.9105L47.4446 8.40625H49.1449ZM53.142 13V2.81818H59.5256V4.14062H54.6783V7.2429H59.1925V8.56037H54.6783V11.6776H59.5852V13H53.142ZM61.5776 13V2.81818H65.2069C65.9957 2.81818 66.6503 2.95407 67.1706 3.22585C67.6943 3.49763 68.0854 3.87382 68.3439 4.3544C68.6025 4.83168 68.7317 5.38352 68.7317 6.00994C68.7317 6.63305 68.6008 7.18158 68.339 7.65554C68.0804 8.12618 67.6893 8.49242 67.1657 8.75426C66.6453 9.0161 65.9907 9.14702 65.2019 9.14702H62.4526V7.82457H65.0627C65.5598 7.82457 65.9642 7.75331 66.2757 7.6108C66.5906 7.46828 66.821 7.26113 66.9668 6.98935C67.1126 6.71757 67.1855 6.3911 67.1855 6.00994C67.1855 5.62547 67.111 5.29238 66.9618 5.01065C66.816 4.72893 66.5856 4.51349 66.2708 4.36435C65.9592 4.21188 65.5499 4.13565 65.0428 4.13565H63.1138V13H61.5776ZM66.6039 8.40625L69.1195 13H67.3695L64.9036 8.40625H66.6039ZM71.4611 13H69.8304L73.4945 2.81818H75.2694L78.9334 13H77.3027L74.4242 4.66761H74.3446L71.4611 13ZM71.7346 9.01278H77.0243V10.3054H71.7346V9.01278Z" fill="black"/>
<path d="M36.0094 22.0923H34.9015C34.8588 21.8556 34.7795 21.6473 34.6635 21.4673C34.5475 21.2874 34.4055 21.1347 34.2374 21.0092C34.0693 20.8838 33.8811 20.7891 33.6728 20.7251C33.4668 20.6612 33.2478 20.6293 33.0158 20.6293C32.5968 20.6293 32.2215 20.7346 31.8901 20.9453C31.561 21.156 31.3006 21.465 31.1088 21.8722C30.9194 22.2794 30.8248 22.7765 30.8248 23.3636C30.8248 23.9555 30.9194 24.455 31.1088 24.8622C31.3006 25.2694 31.5622 25.5772 31.8936 25.7855C32.2251 25.9938 32.598 26.098 33.0123 26.098C33.2419 26.098 33.4597 26.0672 33.6657 26.0057C33.874 25.9418 34.0622 25.8482 34.2303 25.7251C34.3984 25.602 34.5404 25.4517 34.6564 25.2741C34.7748 25.0942 34.8565 24.8883 34.9015 24.6562L36.0094 24.6598C35.9502 25.0173 35.8354 25.3464 35.665 25.647C35.4969 25.9453 35.2802 26.2034 35.0151 26.4212C34.7523 26.6366 34.4516 26.8035 34.1131 26.9219C33.7746 27.0402 33.4052 27.0994 33.0051 27.0994C32.3754 27.0994 31.8143 26.9503 31.3219 26.652C30.8295 26.3513 30.4412 25.9216 30.1571 25.3629C29.8754 24.8042 29.7346 24.1378 29.7346 23.3636C29.7346 22.5871 29.8766 21.9207 30.1607 21.3643C30.4448 20.8056 30.833 20.3771 31.3255 20.0788C31.8179 19.7782 32.3778 19.6278 33.0051 19.6278C33.391 19.6278 33.7509 19.6835 34.0847 19.7947C34.4209 19.9036 34.7227 20.0646 34.9902 20.2777C35.2578 20.4884 35.4791 20.7464 35.6543 21.0518C35.8295 21.3549 35.9479 21.7017 36.0094 22.0923ZM37.3224 27V19.7273H41.8821V20.6719H38.4197V22.8878H41.6442V23.8288H38.4197V26.0554H41.9247V27H37.3224ZM43.3478 27V19.7273H45.9402C46.5036 19.7273 46.9712 19.8243 47.3429 20.0185C47.7169 20.2126 47.9963 20.4813 48.1809 20.8246C48.3656 21.1655 48.4579 21.5597 48.4579 22.0071C48.4579 22.4522 48.3644 22.844 48.1774 23.1825C47.9927 23.5187 47.7134 23.7803 47.3393 23.9673C46.9676 24.1544 46.5001 24.2479 45.9366 24.2479H43.9728V23.3033H45.8372C46.1923 23.3033 46.4811 23.2524 46.7037 23.1506C46.9286 23.0488 47.0931 22.9008 47.1973 22.7067C47.3014 22.5125 47.3535 22.2794 47.3535 22.0071C47.3535 21.7325 47.3002 21.4946 47.1937 21.2933C47.0895 21.0921 46.925 20.9382 46.7001 20.8317C46.4776 20.7228 46.1852 20.6683 45.823 20.6683H44.4451V27H43.3478ZM46.938 23.7188L48.7349 27H47.4849L45.7235 23.7188H46.938ZM49.4345 20.6719V19.7273H55.063V20.6719H52.7939V27H51.7001V20.6719H49.4345ZM57.4041 19.7273V27H56.3068V19.7273H57.4041ZM59.0021 27V19.7273H63.5121V20.6719H60.0994V22.8878H63.1889V23.8288H60.0994V27H59.0021ZM65.9588 19.7273V27H64.8615V19.7273H65.9588ZM67.5568 27V19.7273H72.1165V20.6719H68.6541V22.8878H71.8786V23.8288H68.6541V26.0554H72.1591V27H67.5568ZM75.9366 27H73.5822V19.7273H76.0112C76.7238 19.7273 77.3358 19.8729 77.8471 20.1641C78.3585 20.4529 78.7503 20.8684 79.0225 21.4105C79.2972 21.9503 79.4345 22.5978 79.4345 23.353C79.4345 24.1106 79.296 24.7616 79.019 25.3061C78.7444 25.8506 78.3467 26.2696 77.8258 26.5632C77.305 26.8544 76.6752 27 75.9366 27ZM74.6795 26.0412H75.8762C76.4302 26.0412 76.8907 25.937 77.2576 25.7287C77.6246 25.518 77.8992 25.2138 78.0815 24.8161C78.2638 24.416 78.3549 23.9283 78.3549 23.353C78.3549 22.7824 78.2638 22.2983 78.0815 21.9006C77.9016 21.5028 77.6329 21.201 77.2754 20.995C76.9179 20.7891 76.474 20.6861 75.9437 20.6861H74.6795V26.0412Z" fill="black"/>
</svg>
