<svg width="150" height="34" viewBox="0 0 150 34" fill="none" xmlns="http://www.w3.org/2000/svg">
<path d="M32.8887 2.14545C32.8887 0.960551 33.9005 0 35.1486 0C36.3968 0 37.4086 0.960551 37.4086 2.14545C37.4086 3.33035 36.3968 4.2909 35.1486 4.2909C33.9005 4.2909 32.8887 3.33035 32.8887 2.14545Z" fill="white"/>
<path fill-rule="evenodd" clip-rule="evenodd" d="M35.0351 5.75073C33.8502 5.75073 32.8896 6.71128 32.8896 7.89618C32.8896 8.05442 32.9068 8.20866 32.9393 8.35715V24.6583H37.4436V22.7026C38.7704 24.3158 40.6559 25.1224 43.1001 25.1224C45.4512 25.1224 47.4531 24.2826 49.1058 22.6031C50.7819 20.9015 51.6199 18.8243 51.6199 16.3714C51.6199 13.9184 50.7819 11.8522 49.1058 10.1727C47.4531 8.47114 45.4512 7.62035 43.1001 7.62035C40.6559 7.62035 38.7704 8.42694 37.4436 10.0401V7.89602H37.4096C37.4095 6.71119 36.449 5.75073 35.2641 5.75073H35.0351ZM38.8053 19.7524C39.7132 20.6143 40.8654 21.0452 42.2621 21.0452C43.6588 21.0452 44.8111 20.6143 45.7189 19.7524C46.65 18.8685 47.1156 17.7415 47.1156 16.3714C47.1156 15.0012 46.65 13.8853 45.7189 13.0234C44.8111 12.1395 43.6588 11.6975 42.2621 11.6975C40.8654 11.6975 39.7132 12.1395 38.8053 13.0234C37.8975 13.8853 37.4436 15.0012 37.4436 16.3714C37.4436 17.7415 37.8975 18.8685 38.8053 19.7524Z" fill="white"/>
<path fill-rule="evenodd" clip-rule="evenodd" d="M141.655 8.19214C143.96 8.19214 145.927 9.04293 147.556 10.7445C149.186 12.424 150 14.4902 150 16.9431C150 19.3961 149.186 21.4733 147.556 23.1749C145.927 24.8544 143.96 25.6942 141.655 25.6942C139.42 25.6942 137.686 25.0201 136.453 23.6721V23.9191C136.457 23.9579 136.459 23.9974 136.459 24.0373V24.611C136.459 24.6719 136.457 24.7324 136.453 24.7923V25.0595H136.421C136.208 26.2966 135.13 27.2378 133.832 27.2378C132.534 27.2378 131.456 26.2966 131.243 25.0595H131.215V24.8411C131.208 24.7653 131.205 24.6885 131.205 24.611V24.0373C131.205 23.9865 131.208 23.9364 131.215 23.8873V8.65621H136.453V10.2142C137.686 8.86614 139.42 8.19214 141.655 8.19214ZM137.605 19.8933C138.396 20.6225 139.397 20.9872 140.608 20.9872C141.818 20.9872 142.807 20.6225 143.576 19.8933C144.367 19.164 144.763 18.1807 144.763 16.9431C144.763 15.7056 144.367 14.7222 143.576 13.993C142.807 13.2637 141.818 12.8991 140.608 12.8991C139.397 12.8991 138.396 13.2637 137.605 13.993C136.837 14.7222 136.453 15.7056 136.453 16.9431C136.453 18.1807 136.837 19.164 137.605 19.8933Z" fill="#0ECC88"/>
<path d="M122.135 8.65621H127.372V25.2301H122.135V23.6721C120.901 25.0201 119.167 25.6942 116.932 25.6942C114.628 25.6942 112.661 24.8544 111.031 23.1749C109.402 21.4733 108.587 19.3961 108.587 16.9431C108.587 14.4902 109.402 12.424 111.031 10.7445C112.661 9.04293 114.628 8.19214 116.932 8.19214C119.167 8.19214 120.901 8.86614 122.135 10.2142V8.65621ZM114.977 19.8933C115.745 20.6225 116.746 20.9872 117.98 20.9872C119.213 20.9872 120.214 20.6225 120.982 19.8933C121.751 19.164 122.135 18.1807 122.135 16.9431C122.135 15.7056 121.751 14.7222 120.982 13.993C120.214 13.2637 119.213 12.8991 117.98 12.8991C116.746 12.8991 115.745 13.2637 114.977 13.993C114.209 14.7222 113.824 15.7056 113.824 16.9431C113.824 18.1807 114.209 19.164 114.977 19.8933Z" fill="#0ECC88"/>
<path d="M106.835 13.4296H103.239V19.2967C103.239 19.9597 103.518 20.3796 104.077 20.5564C104.636 20.7331 105.555 20.7884 106.835 20.7221V25.2302C103.507 25.5617 101.202 25.2633 99.9218 24.3352C98.6415 23.385 98.0014 21.7055 98.0014 19.2967V13.4296H95.208V8.65631H98.0014V5.50727L103.239 4.01562V8.65631H106.835V13.4296Z" fill="#0ECC88"/>
<path d="M86.2987 8.19214C88.2075 8.19214 89.7788 8.79985 91.0125 10.0153C92.2695 11.2307 92.898 12.9102 92.898 15.0537V25.2301H88.3937V15.5841C88.3937 14.4792 88.0795 13.6394 87.451 13.0649C86.8225 12.4682 85.9845 12.1699 84.9369 12.1699C83.7731 12.1699 82.8419 12.5124 82.1436 13.1974C81.4453 13.8825 81.0961 14.9101 81.0961 16.2802V25.2301H76.5918V8.65621H81.0961V10.5125C82.1901 8.96559 83.9244 8.19214 86.2987 8.19214Z" fill="white"/>
<path d="M68.0034 8.65621H72.5077V25.2301H68.0034V23.2744C66.6533 24.8876 64.7562 25.6942 62.312 25.6942C59.9842 25.6942 57.9823 24.8544 56.3063 23.1749C54.6535 21.4733 53.8271 19.3961 53.8271 16.9431C53.8271 14.4902 54.6535 12.424 56.3063 10.7445C57.9823 9.04293 59.9842 8.19214 62.312 8.19214C64.7562 8.19214 66.6533 8.99873 68.0034 10.6119V8.65621ZM59.6932 20.3242C60.601 21.1861 61.7533 21.617 63.15 21.617C64.5467 21.617 65.6989 21.1861 66.6068 20.3242C67.5379 19.4403 68.0034 18.3133 68.0034 16.9431C68.0034 15.573 67.5379 14.4571 66.6068 13.5952C65.6989 12.7113 64.5467 12.2693 63.15 12.2693C61.7533 12.2693 60.601 12.7113 59.6932 13.5952C58.7854 14.4571 58.3314 15.573 58.3314 16.9431C58.3314 18.3133 58.7854 19.4403 59.6932 20.3242Z" fill="white"/>
<path d="M24.9359 11.5069C25.3549 10.4462 26.0416 9.65062 26.996 9.12025C27.9737 8.58989 29.0561 8.32471 30.2433 8.32471V13.098C28.8699 12.9433 27.6362 13.2085 26.5421 13.8935C25.4713 14.5786 24.9359 15.7167 24.9359 17.3078V25.2301H20.4316V8.65619H24.9359V11.5069Z" fill="white"/>
<path d="M11.8019 8.65625H16.3062V25.2301H11.8019V23.3739C10.7079 24.9207 8.97366 25.6942 6.59931 25.6942C4.69051 25.6942 3.10761 25.0865 1.8506 23.8711C0.616866 22.6557 0 20.9762 0 18.8326V8.65625H4.50429V18.3022C4.50429 19.4072 4.81854 20.258 5.44705 20.8546C6.07555 21.4292 6.91356 21.7165 7.96107 21.7165C9.12496 21.7165 10.0561 21.3739 10.7544 20.6889C11.4528 20.0038 11.8019 18.9763 11.8019 17.6061V8.65625Z" fill="white"/>
<path d="M131.205 31.5064C131.205 30.1292 132.381 29.0127 133.832 29.0127C135.283 29.0127 136.459 30.1292 136.459 31.5064C136.459 32.8837 135.283 34.0001 133.832 34.0001C132.381 34.0001 131.205 32.8837 131.205 31.5064Z" fill="#0ECC88"/>
</svg>
