<svg width="40" height="41" viewBox="0 0 40 41" fill="none" xmlns="http://www.w3.org/2000/svg">
<path d="M0 10C0 4.47715 4.47715 0 10 0H30C35.5228 0 40 4.47715 40 10V31C40 36.5228 35.5228 41 30 41H10C4.47715 41 0 36.5228 0 31V10Z" fill="#25CC62"/>
<path d="M14.94 29.13C16.42 30 18.15 30.5 20 30.5C25.52 30.5 30 26.02 30 20.5C30 14.98 25.52 10.5 20 10.5C14.48 10.5 10 14.98 10 20.5C10 22.32 10.49 24.03 11.34 25.5L10 30.5L14.94 29.13Z" stroke="white" stroke-width="1.5" stroke-miterlimit="10" stroke-linecap="round" stroke-linejoin="round"/>
<path d="M25 23.6705C25 23.8505 24.96 24.0405 24.87 24.2205C24.78 24.4005 24.67 24.5705 24.53 24.7305C24.28 25.0005 24.01 25.2005 23.71 25.3205C23.41 25.4505 23.08 25.5105 22.73 25.5105C22.22 25.5105 21.67 25.3905 21.1 25.1405C20.52 24.8905 19.95 24.5605 19.38 24.1505C18.8 23.7305 18.26 23.2605 17.74 22.7505C17.22 22.2305 16.76 21.6804 16.34 21.1104C15.93 20.5404 15.6 19.9705 15.36 19.4005C15.12 18.8305 15 18.2805 15 17.7605C15 17.4205 15.06 17.0905 15.18 16.7905C15.3 16.4805 15.49 16.2005 15.76 15.9505C16.08 15.6305 16.43 15.4805 16.8 15.4805C16.94 15.4805 17.08 15.5105 17.21 15.5705C17.34 15.6305 17.46 15.7205 17.55 15.8505L18.71 17.4904C18.8 17.6204 18.87 17.7305 18.91 17.8405C18.96 17.9505 18.98 18.0505 18.98 18.1505C18.98 18.2705 18.94 18.3905 18.87 18.5105C18.8 18.6305 18.71 18.7505 18.59 18.8705L18.21 19.2704C18.15 19.3304 18.13 19.3905 18.13 19.4705C18.13 19.5105 18.14 19.5505 18.15 19.5905C18.17 19.6305 18.18 19.6605 18.19 19.6905C18.28 19.8605 18.44 20.0704 18.66 20.3304C18.89 20.5904 19.13 20.8605 19.39 21.1205C19.66 21.3905 19.92 21.6304 20.19 21.8604C20.45 22.0804 20.67 22.2305 20.84 22.3205C20.87 22.3305 20.9 22.3504 20.93 22.3604C20.97 22.3804 21.01 22.3805 21.06 22.3805C21.15 22.3805 21.21 22.3505 21.27 22.2905L21.65 21.9105C21.78 21.7805 21.9 21.6905 22.01 21.6305C22.13 21.5605 22.24 21.5204 22.37 21.5204C22.47 21.5204 22.57 21.5405 22.68 21.5905C22.79 21.6405 22.91 21.7005 23.03 21.7905L24.69 22.9705C24.82 23.0605 24.91 23.1705 24.97 23.2905C24.97 23.4105 25 23.5305 25 23.6705Z" fill="white"/>
</svg>
