<svg width="20" height="20" viewBox="0 0 20 20" fill="none" xmlns="http://www.w3.org/2000/svg">
<g clip-path="url(#clip0_100_771)">
<mask id="path-1-inside-1_100_771" fill="white">
<path d="M14.582 11.9842C14.3338 11.8601 13.1099 11.26 12.8818 11.178C12.6537 11.095 12.4879 11.054 12.3221 11.302C12.1564 11.5491 11.6791 12.1082 11.5334 12.2732C11.3887 12.4383 11.243 12.4583 10.9948 12.3342C10.2613 12.0436 9.58432 11.6279 8.99417 11.106C8.44988 10.6052 7.98325 10.0267 7.60953 9.38959C7.46483 9.14154 7.59445 9.00751 7.71905 8.88448C7.83059 8.77345 7.96825 8.59542 8.09184 8.45038C8.19421 8.32518 8.27812 8.18608 8.34104 8.03729C8.37415 7.96892 8.38956 7.89339 8.38588 7.81758C8.38219 7.74176 8.35952 7.66807 8.31994 7.6032C8.25764 7.47917 7.76025 6.2599 7.55326 5.76379C7.35129 5.28169 7.1463 5.3467 6.99256 5.3387C6.84787 5.3317 6.68207 5.3297 6.51628 5.3297C6.39016 5.3332 6.26613 5.36264 6.152 5.41618C6.03786 5.46971 5.9361 5.54618 5.8531 5.64077C5.57177 5.90596 5.34902 6.22658 5.19902 6.58218C5.04903 6.93779 4.97509 7.3206 4.98191 7.70622C5.0626 8.64066 5.41568 9.53131 5.99779 10.2688C7.06483 11.8612 8.52957 13.15 10.2482 14.0086C10.7118 14.2068 11.1853 14.3811 11.667 14.5307C12.1748 14.6842 12.7116 14.7174 13.2345 14.6277C13.5809 14.5579 13.9089 14.4173 14.1979 14.2148C14.4869 14.0124 14.7306 13.7524 14.9136 13.4515C15.0768 13.0813 15.1271 12.6716 15.0583 12.2732C14.997 12.1692 14.8312 12.1082 14.582 11.9842ZM17.086 2.90317C15.3778 1.20315 13.1071 0.178982 10.6967 0.0213432C8.28639 -0.136296 5.90063 0.583335 3.98361 2.04626C2.06659 3.50918 0.748953 5.61571 0.276019 7.97365C-0.196916 10.3316 0.207076 12.7803 1.41278 14.8638L0 19.9999L5.27934 18.6226C6.73951 19.414 8.37559 19.8287 10.0382 19.8289H10.0422C12.0118 19.8279 13.9368 19.2458 15.5742 18.1562C17.2115 17.0666 18.4877 15.5184 19.2415 13.7071C19.9953 11.8959 20.1928 9.90283 19.8092 7.97986C19.4255 6.05689 18.4779 4.29026 17.086 2.90316V2.90317ZM14.4403 16.8952C13.1221 17.7177 11.5979 18.1541 10.0422 18.1545H10.0382C8.55597 18.1544 7.10107 17.7575 5.82596 17.0052L5.52351 16.8272L2.39047 17.6454L3.22649 14.6047L3.03055 14.2927C2.16092 12.9122 1.72205 11.306 1.76943 9.6773C1.81681 8.04856 2.34832 6.47039 3.29675 5.14233C4.24517 3.81428 5.56791 2.79599 7.09772 2.21623C8.62752 1.63648 10.2957 1.52129 11.8912 1.88524C13.4868 2.24919 14.9381 3.07593 16.0617 4.26091C17.1852 5.4459 17.9305 6.93591 18.2034 8.54254C18.4762 10.1492 18.2644 11.8003 17.5945 13.287C16.9247 14.7738 15.827 16.0294 14.4403 16.8952Z"/>
</mask>
<path d="M14.582 11.9842C14.3338 11.8601 13.1099 11.26 12.8818 11.178C12.6537 11.095 12.4879 11.054 12.3221 11.302C12.1564 11.5491 11.6791 12.1082 11.5334 12.2732C11.3887 12.4383 11.243 12.4583 10.9948 12.3342C10.2613 12.0436 9.58432 11.6279 8.99417 11.106C8.44988 10.6052 7.98325 10.0267 7.60953 9.38959C7.46483 9.14154 7.59445 9.00751 7.71905 8.88448C7.83059 8.77345 7.96825 8.59542 8.09184 8.45038C8.19421 8.32518 8.27812 8.18608 8.34104 8.03729C8.37415 7.96892 8.38956 7.89339 8.38588 7.81758C8.38219 7.74176 8.35952 7.66807 8.31994 7.6032C8.25764 7.47917 7.76025 6.2599 7.55326 5.76379C7.35129 5.28169 7.1463 5.3467 6.99256 5.3387C6.84787 5.3317 6.68207 5.3297 6.51628 5.3297C6.39016 5.3332 6.26613 5.36264 6.152 5.41618C6.03786 5.46971 5.9361 5.54618 5.8531 5.64077C5.57177 5.90596 5.34902 6.22658 5.19902 6.58218C5.04903 6.93779 4.97509 7.3206 4.98191 7.70622C5.0626 8.64066 5.41568 9.53131 5.99779 10.2688C7.06483 11.8612 8.52957 13.15 10.2482 14.0086C10.7118 14.2068 11.1853 14.3811 11.667 14.5307C12.1748 14.6842 12.7116 14.7174 13.2345 14.6277C13.5809 14.5579 13.9089 14.4173 14.1979 14.2148C14.4869 14.0124 14.7306 13.7524 14.9136 13.4515C15.0768 13.0813 15.1271 12.6716 15.0583 12.2732C14.997 12.1692 14.8312 12.1082 14.582 11.9842ZM17.086 2.90317C15.3778 1.20315 13.1071 0.178982 10.6967 0.0213432C8.28639 -0.136296 5.90063 0.583335 3.98361 2.04626C2.06659 3.50918 0.748953 5.61571 0.276019 7.97365C-0.196916 10.3316 0.207076 12.7803 1.41278 14.8638L0 19.9999L5.27934 18.6226C6.73951 19.414 8.37559 19.8287 10.0382 19.8289H10.0422C12.0118 19.8279 13.9368 19.2458 15.5742 18.1562C17.2115 17.0666 18.4877 15.5184 19.2415 13.7071C19.9953 11.8959 20.1928 9.90283 19.8092 7.97986C19.4255 6.05689 18.4779 4.29026 17.086 2.90316V2.90317ZM14.4403 16.8952C13.1221 17.7177 11.5979 18.1541 10.0422 18.1545H10.0382C8.55597 18.1544 7.10107 17.7575 5.82596 17.0052L5.52351 16.8272L2.39047 17.6454L3.22649 14.6047L3.03055 14.2927C2.16092 12.9122 1.72205 11.306 1.76943 9.6773C1.81681 8.04856 2.34832 6.47039 3.29675 5.14233C4.24517 3.81428 5.56791 2.79599 7.09772 2.21623C8.62752 1.63648 10.2957 1.52129 11.8912 1.88524C13.4868 2.24919 14.9381 3.07593 16.0617 4.26091C17.1852 5.4459 17.9305 6.93591 18.2034 8.54254C18.4762 10.1492 18.2644 11.8003 17.5945 13.287C16.9247 14.7738 15.827 16.0294 14.4403 16.8952Z" fill="#0236EF"/>
<path d="M12.8818 11.178L12.5398 12.1177L12.5435 12.119L12.8818 11.178ZM12.3221 11.302L13.1525 11.8593L13.1535 11.8577L12.3221 11.302ZM11.5334 12.2732L10.7837 11.6114L10.7814 11.614L11.5334 12.2732ZM10.9948 12.3342L11.4418 11.4397L11.4032 11.4204L11.3632 11.4046L10.9948 12.3342ZM8.99417 11.106L8.31707 11.8419L8.3243 11.8485L8.33166 11.855L8.99417 11.106ZM7.60953 9.38959L6.74574 9.89345L6.74696 9.89554L7.60953 9.38959ZM7.71905 8.88448L8.42166 9.59606L8.42453 9.59321L7.71905 8.88448ZM8.09184 8.45038L8.85296 9.099L8.85958 9.09123L8.86603 9.08334L8.09184 8.45038ZM8.34104 8.03729L7.44101 7.60145L7.42992 7.62436L7.42001 7.6478L8.34104 8.03729ZM8.31994 7.6032L7.42633 8.05206L7.44484 8.0889L7.46632 8.1241L8.31994 7.6032ZM7.55326 5.76379L8.47615 5.37873L8.47559 5.3774L7.55326 5.76379ZM6.99256 5.3387L7.04454 4.34005L7.0409 4.33987L6.99256 5.3387ZM6.51628 5.3297V4.3297H6.5024L6.48853 4.33008L6.51628 5.3297ZM5.8531 5.64077L6.53903 6.36843L6.5735 6.33594L6.60474 6.30033L5.8531 5.64077ZM4.98191 7.70622L3.98207 7.72391L3.98268 7.75814L3.98562 7.79224L4.98191 7.70622ZM5.99779 10.2688L6.82853 9.71212L6.80685 9.67977L6.78273 9.64921L5.99779 10.2688ZM10.2482 14.0086L9.80126 14.9032L9.82776 14.9164L9.855 14.9281L10.2482 14.0086ZM11.667 14.5307L11.3704 15.4857L11.3777 15.488L11.667 14.5307ZM13.2345 14.6277L13.4035 15.6134L13.4179 15.6109L13.4322 15.608L13.2345 14.6277ZM14.9136 13.4515L15.7681 13.9709L15.8021 13.9149L15.8286 13.855L14.9136 13.4515ZM15.0583 12.2732L16.0437 12.1029L16.0126 11.9229L15.9198 11.7656L15.0583 12.2732ZM17.086 2.90317L16.3806 3.61198L18.086 5.30916V2.90317H17.086ZM1.41278 14.8638L2.37697 15.129L2.48801 14.7253L2.27831 14.3629L1.41278 14.8638ZM0 19.9999L-0.964189 19.7347L-1.42357 21.4048L0.252436 20.9675L0 19.9999ZM5.27934 18.6226L5.75586 17.7434L5.40884 17.5553L5.02691 17.655L5.27934 18.6226ZM10.0382 19.8289L10.0381 20.8289H10.0382V19.8289ZM10.0422 19.8289V20.8289H10.0427L10.0422 19.8289ZM17.086 2.90316L17.7919 2.19484L16.086 0.494803V2.90316H17.086ZM10.0422 18.1545V19.1545H10.0425L10.0422 18.1545ZM10.0382 18.1545L10.0381 19.1545H10.0382V18.1545ZM5.82596 17.0052L6.33407 16.1439L6.33325 16.1435L5.82596 17.0052ZM5.52351 16.8272L6.0308 15.9654L5.67279 15.7547L5.27084 15.8597L5.52351 16.8272ZM2.39047 17.6454L1.42626 17.3803L0.966995 19.0507L2.64315 18.6129L2.39047 17.6454ZM3.22649 14.6047L4.19071 14.8698L4.30735 14.4456L4.07339 14.073L3.22649 14.6047ZM3.03055 14.2927L3.87745 13.7609L3.87666 13.7596L3.03055 14.2927ZM15.029 11.0896C14.8996 11.025 14.527 10.8417 14.1578 10.6641C13.8211 10.5022 13.3963 10.3003 13.2202 10.237L12.5435 12.119C12.537 12.1167 12.5538 12.1228 12.608 12.1466C12.6555 12.1675 12.7166 12.1952 12.7888 12.2286C12.933 12.2954 13.1101 12.3795 13.291 12.4665C13.6528 12.6405 14.0162 12.8193 14.135 12.8787L15.029 11.0896ZM13.2238 10.2383C13.139 10.2074 12.8244 10.0812 12.4649 10.1223C11.9958 10.176 11.6814 10.4611 11.4908 10.7463L13.1535 11.8577C13.1472 11.8672 13.1073 11.925 13.0215 11.9851C12.9261 12.052 12.8109 12.0958 12.6923 12.1094C12.5863 12.1215 12.5121 12.1054 12.4956 12.1016C12.4824 12.0986 12.487 12.0984 12.5398 12.1177L13.2238 10.2383ZM11.4918 10.7448C11.4409 10.8205 11.3116 10.9853 11.1497 11.1809C10.9976 11.3648 10.8488 11.5377 10.7837 11.6114L12.283 12.935C12.4201 12.7798 12.9433 12.1709 13.1525 11.8592L11.4918 10.7448ZM10.7814 11.614C10.8068 11.5851 10.9422 11.4478 11.1853 11.4191C11.3866 11.3952 11.5001 11.4688 11.4418 11.4397L10.5478 13.2288C10.7377 13.3237 11.0481 13.4493 11.4205 13.4052C11.8346 13.3562 12.1153 13.1264 12.2853 12.9325L10.7814 11.614ZM11.3632 11.4046C10.7373 11.1565 10.1599 10.802 9.65668 10.3569L8.33166 11.855C9.00876 12.4539 9.78529 12.9306 10.6264 13.2639L11.3632 11.4046ZM9.67127 10.3701C9.19975 9.93622 8.79565 9.43527 8.47209 8.88364L6.74696 9.89554C7.17085 10.6182 7.70001 11.2741 8.31707 11.8419L9.67127 10.3701ZM8.47331 8.88573C8.48899 8.91262 8.52596 8.98555 8.54016 9.09775C8.55533 9.2176 8.53871 9.33684 8.49989 9.44059C8.46459 9.53492 8.41975 9.59303 8.40517 9.61098C8.39346 9.62539 8.38773 9.62956 8.42166 9.59606L7.01645 8.1729C6.98039 8.2085 6.74625 8.42027 6.62672 8.73971C6.47136 9.15492 6.55379 9.56439 6.74574 9.89345L8.47331 8.88573ZM8.42453 9.59321C8.57348 9.44494 8.78452 9.17931 8.85296 9.099L7.33072 7.80177C7.15198 8.01152 7.08769 8.10197 7.01357 8.17575L8.42453 9.59321ZM8.86603 9.08334C9.02862 8.88447 9.162 8.66341 9.26206 8.42679L7.42001 7.6478C7.39423 7.70875 7.35979 7.76589 7.31765 7.81743L8.86603 9.08334ZM9.24106 8.47313C9.34706 8.25425 9.39652 8.01218 9.3847 7.76902L7.38705 7.86613C7.38261 7.7746 7.40124 7.68359 7.44101 7.60145L9.24106 8.47313ZM9.3847 7.76902C9.37288 7.52587 9.30018 7.2898 9.17355 7.08229L7.46632 8.1241C7.41887 8.04634 7.3915 7.95765 7.38705 7.86613L9.3847 7.76902ZM9.21354 7.15434C9.21728 7.16179 9.19116 7.10356 9.12487 6.9458C9.06746 6.80921 8.99393 6.63197 8.91504 6.44109C8.75873 6.06285 8.58043 5.62867 8.47615 5.37873L6.63037 6.14886C6.73308 6.39503 6.90697 6.81853 7.06667 7.20497C7.21174 7.55601 7.37344 7.94676 7.42633 8.05206L9.21354 7.15434ZM8.47559 5.3774C8.33011 5.03014 8.09651 4.66422 7.68039 4.46853C7.47993 4.37426 7.29733 4.34953 7.17479 4.3424C7.11846 4.33911 7.06891 4.33943 7.04912 4.3395C7.01896 4.3396 7.03005 4.3393 7.04454 4.34005L6.94059 6.33735C6.99351 6.3401 7.04464 6.33952 7.05591 6.33949C7.07754 6.33941 7.07081 6.33973 7.05847 6.33901C7.02392 6.337 6.93401 6.32765 6.82926 6.27839C6.60456 6.17271 6.57443 6.01534 6.63092 6.15019L8.47559 5.3774ZM7.0409 4.33987C6.87209 4.3317 6.68743 4.3297 6.51628 4.3297V6.3297C6.67672 6.3297 6.82365 6.3317 6.94423 6.33753L7.0409 4.33987ZM6.48853 4.33008C6.22515 4.3374 5.966 4.39888 5.72734 4.51083L6.57666 6.32153C6.56626 6.32641 6.55516 6.32901 6.54402 6.32932L6.48853 4.33008ZM5.72734 4.51083C5.48867 4.62277 5.27551 4.78284 5.10145 4.9812L6.60474 6.30033C6.59668 6.30952 6.58706 6.31665 6.57666 6.32153L5.72734 4.51083ZM5.16716 4.91311C4.7848 5.27354 4.48177 5.70956 4.27763 6.19355L6.12042 6.97082C6.21626 6.74359 6.35873 6.53839 6.53903 6.36843L5.16716 4.91311ZM4.27763 6.19355C4.07348 6.67756 3.97278 7.19876 3.98207 7.72391L5.98176 7.68854C5.9774 7.44244 6.02458 7.19803 6.12042 6.97082L4.27763 6.19355ZM3.98562 7.79224C4.08315 8.92172 4.50989 9.99778 5.21285 10.8884L6.78273 9.64921C6.32146 9.06483 6.04205 8.3596 5.97821 7.6202L3.98562 7.79224ZM5.16705 10.8254C6.33081 12.5622 7.92795 13.9673 9.80126 14.9032L10.6951 13.114C9.13119 12.3327 7.79885 11.1602 6.82853 9.71212L5.16705 10.8254ZM9.855 14.9281C10.3502 15.1398 10.856 15.3259 11.3704 15.4857L11.9636 13.5757C11.5147 13.4363 11.0734 13.2739 10.6414 13.0891L9.855 14.9281ZM11.3777 15.488C12.034 15.6863 12.7277 15.7292 13.4035 15.6134L13.0656 13.6421C12.6954 13.7056 12.3155 13.682 11.9563 13.5735L11.3777 15.488ZM13.4322 15.608C13.9135 15.5109 14.3696 15.3155 14.7717 15.0339L13.6242 13.3958C13.4482 13.5191 13.2483 13.6048 13.0368 13.6475L13.4322 15.608ZM14.7717 15.0339C15.1738 14.7522 15.5131 14.3903 15.7681 13.9709L14.0591 12.932C13.9481 13.1146 13.8001 13.2726 13.6242 13.3958L14.7717 15.0339ZM15.8286 13.855C16.0712 13.3048 16.1461 12.6955 16.0437 12.1029L14.0729 12.4435C14.1082 12.6477 14.0824 12.8579 13.9986 13.048L15.8286 13.855ZM15.9198 11.7656C15.7411 11.4623 15.4692 11.3127 15.3693 11.2582C15.3043 11.2228 15.2375 11.1904 15.1863 11.1658C15.1289 11.1382 15.0819 11.1159 15.0276 11.0889L14.1364 12.8794C14.2067 12.9144 14.2738 12.9463 14.3195 12.9682C14.3441 12.98 14.3632 12.9893 14.3795 12.9974C14.3957 13.0055 14.4058 13.0108 14.4119 13.0142C14.4181 13.0175 14.4169 13.0171 14.4109 13.0133C14.4049 13.0095 14.3905 13 14.3711 12.9846C14.333 12.9544 14.2606 12.8892 14.1967 12.7809L15.9198 11.7656ZM17.7914 2.19436C15.9113 0.323326 13.4131 -0.803144 10.762 -0.976525L10.6315 1.01921C12.8011 1.16111 14.8442 2.08297 16.3806 3.61198L17.7914 2.19436ZM10.762 -0.976525C8.11097 -1.14991 5.48642 -0.358497 3.37695 1.25129L4.59026 2.84122C6.31483 1.52517 8.46182 0.877313 10.6315 1.01921L10.762 -0.976525ZM3.37695 1.25129C1.26736 2.86118 -0.183595 5.18011 -0.704454 7.77699L1.25649 8.1703C1.6815 6.0513 2.86581 4.15719 4.59026 2.84122L3.37695 1.25129ZM-0.704454 7.77699C-1.22533 10.3739 -0.78028 13.0706 0.547257 15.3647L2.27831 14.3629C1.19443 12.4899 0.831494 10.2892 1.25649 8.1703L-0.704454 7.77699ZM0.448593 14.5986L-0.964189 19.7347L0.964189 20.2651L2.37697 15.129L0.448593 14.5986ZM0.252436 20.9675L5.53178 19.5902L5.02691 17.655L-0.252436 19.0323L0.252436 20.9675ZM4.80282 19.5018C6.40944 20.3726 8.2093 20.8287 10.0381 20.8289L10.0383 18.8289C8.54187 18.8288 7.06958 18.4555 5.75586 17.7434L4.80282 19.5018ZM10.0382 20.8289H10.0422V18.8289H10.0382V20.8289ZM10.0427 20.8289C12.2089 20.8278 14.3266 20.1876 16.1282 18.9887L15.0202 17.3237C13.547 18.304 11.8146 18.828 10.0417 18.8289L10.0427 20.8289ZM16.1282 18.9887C17.9298 17.7898 19.3347 16.0858 20.1647 14.0913L18.3183 13.3229C17.6407 14.951 16.4933 16.3434 15.0202 17.3237L16.1282 18.9887ZM20.1647 14.0913C20.9948 12.0969 21.2124 9.90199 20.7898 7.78421L18.8285 8.17552C19.1733 9.90368 18.9958 11.6948 18.3183 13.3229L20.1647 14.0913ZM20.7898 7.78421C20.3673 5.66646 19.3238 3.72151 17.7919 2.19484L16.3801 3.61148C17.632 4.85901 18.4837 6.44733 18.8285 8.17552L20.7898 7.78421ZM16.086 2.90316V2.90317H18.086V2.90316H16.086ZM13.911 16.0468C12.7517 16.7701 11.4109 17.1541 10.0419 17.1545L10.0425 19.1545C11.785 19.154 13.4925 18.6653 14.9697 17.7436L13.911 16.0468ZM10.0422 17.1545H10.0382V19.1545H10.0422V17.1545ZM10.0382 17.1545C8.7345 17.1544 7.45507 16.8053 6.33407 16.1439L5.31786 17.8665C6.74708 18.7097 8.37744 19.1544 10.0381 19.1545L10.0382 17.1545ZM6.33325 16.1435L6.0308 15.9654L5.01623 17.689L5.31868 17.867L6.33325 16.1435ZM5.27084 15.8597L2.1378 16.6778L2.64315 18.6129L5.77619 17.7948L5.27084 15.8597ZM3.35469 17.9105L4.19071 14.8698L2.26227 14.3396L1.42626 17.3803L3.35469 17.9105ZM4.07339 14.073L3.87745 13.7609L2.18365 14.8244L2.37959 15.1365L4.07339 14.073ZM3.87666 13.7596C3.1127 12.5469 2.72741 11.1364 2.76901 9.70638L0.769853 9.64822C0.716689 11.4757 1.20914 13.2775 2.18444 14.8257L3.87666 13.7596ZM2.76901 9.70638C2.81061 8.27636 3.27726 6.8903 4.11053 5.72349L2.48296 4.56117C1.41938 6.05047 0.823017 7.82077 0.769853 9.64822L2.76901 9.70638ZM4.11053 5.72349C4.94384 4.55663 6.10654 3.66127 7.4521 3.15134L6.74334 1.28113C5.02929 1.93071 3.5465 3.07192 2.48296 4.56117L4.11053 5.72349ZM7.4521 3.15134C8.79769 2.64139 10.2652 2.54003 11.6689 2.8602L12.1136 0.910283C10.3261 0.502559 8.45735 0.631567 6.74334 1.28113L7.4521 3.15134ZM11.6689 2.8602C13.0725 3.18037 14.3486 3.90751 15.336 4.94896L16.7873 3.57287C15.5277 2.24435 13.9011 1.31801 12.1136 0.910283L11.6689 2.8602ZM15.336 4.94896C16.3234 5.99036 16.9779 7.29927 17.2175 8.70997L19.1893 8.37511C18.8832 6.57256 18.047 4.90144 16.7873 3.57287L15.336 4.94896ZM17.2175 8.70997C17.4571 10.1206 17.2711 11.5705 16.6828 12.8763L18.5063 13.6978C19.2576 12.03 19.4954 10.1777 19.1893 8.37511L17.2175 8.70997ZM16.6828 12.8763C16.0945 14.1821 15.13 15.2857 13.9107 16.047L14.9699 17.7435C16.524 16.7732 17.7549 15.3654 18.5063 13.6978L16.6828 12.8763Z" fill="black" mask="url(#path-1-inside-1_100_771)"/>
</g>
<defs>
<clipPath id="clip0_100_771">
<rect width="20" height="20" fill="white"/>
</clipPath>
</defs>
</svg>
