<svg width="112" height="26" viewBox="0 0 112 26" fill="none" xmlns="http://www.w3.org/2000/svg">
<rect x="24.5566" width="3.37487" height="3.28128" rx="1.64064" fill="#0A1330"/>
<path fill-rule="evenodd" clip-rule="evenodd" d="M26.1973 4.39746C25.2912 4.39746 24.5566 5.132 24.5566 6.0381C24.5566 6.1581 24.5695 6.27509 24.594 6.38776V18.8563H27.9572V17.3607C28.9479 18.5943 30.3557 19.2112 32.1807 19.2112C33.9362 19.2112 35.431 18.569 36.665 17.2847C37.9164 15.9835 38.5421 14.395 38.5421 12.5192C38.5421 10.6434 37.9164 9.06339 36.665 7.77908C35.431 6.47787 33.9362 5.82726 32.1807 5.82726C30.3557 5.82726 28.9479 6.44407 27.9572 7.67769V6.03807H27.9315C27.9315 5.13198 27.197 4.39746 26.2909 4.39746H26.1973ZM28.974 15.1047C29.6518 15.7638 30.5122 16.0933 31.555 16.0933C32.5979 16.0933 33.4582 15.7638 34.1361 15.1047C34.8313 14.4288 35.1789 13.5669 35.1789 12.5192C35.1789 11.4715 34.8313 10.6181 34.1361 9.95903C33.4582 9.28308 32.5979 8.9451 31.555 8.9451C30.5122 8.9451 29.6518 9.28308 28.974 9.95903C28.2961 10.6181 27.9572 11.4715 27.9572 12.5192C27.9572 13.5669 28.2961 14.4288 28.974 15.1047Z" fill="#0A1330"/>
<path fill-rule="evenodd" clip-rule="evenodd" d="M105.77 6.2644C107.491 6.2644 108.96 6.91501 110.176 8.21622C111.393 9.50054 112.001 11.0806 112.001 12.9564C112.001 14.8321 111.393 16.4206 110.176 17.7218C108.96 19.0061 107.491 19.6483 105.77 19.6483C104.102 19.6483 102.807 19.1329 101.886 18.1021V18.2987C101.888 18.3259 101.89 18.3536 101.89 18.3815V18.8676C101.89 18.9097 101.888 18.9516 101.886 18.993V19.1629H101.867C101.725 20.106 100.911 20.829 99.9281 20.829C98.9453 20.829 98.1313 20.106 97.9889 19.1629H97.9749V19.0466C97.9695 18.9877 97.9668 18.928 97.9668 18.8676V18.3815C97.9668 18.3414 97.9695 18.302 97.9749 18.2634V6.61928H101.886V7.81065C102.807 6.77982 104.102 6.2644 105.77 6.2644ZM102.746 15.2123C103.337 15.77 104.084 16.0488 104.988 16.0488C105.892 16.0488 106.631 15.77 107.204 15.2123C107.795 14.6547 108.091 13.9027 108.091 12.9564C108.091 12.01 107.795 11.258 107.204 10.7004C106.631 10.1427 105.892 9.86386 104.988 9.86386C104.084 9.86386 103.337 10.1427 102.746 10.7004C102.172 11.258 101.886 12.01 101.886 12.9564C101.886 13.9027 102.172 14.6547 102.746 15.2123Z" fill="#0ECC88"/>
<path d="M91.1938 6.61952H95.1045V19.2937H91.1938V18.1023C90.2726 19.1331 88.9777 19.6485 87.3092 19.6485C85.5885 19.6485 84.1198 19.0064 82.9031 17.7221C81.6865 16.4209 81.0781 14.8324 81.0781 12.9566C81.0781 11.0808 81.6865 9.50078 82.9031 8.21647C84.1198 6.91525 85.5885 6.26465 87.3092 6.26465C88.9777 6.26465 90.2726 6.78006 91.1938 7.81089V6.61952ZM85.8492 15.2126C86.4227 15.7703 87.1701 16.0491 88.0913 16.0491C89.0125 16.0491 89.7599 15.7703 90.3334 15.2126C90.907 14.6549 91.1938 13.9029 91.1938 12.9566C91.1938 12.0103 90.907 11.2583 90.3334 10.7006C89.7599 10.1429 89.0125 9.8641 88.0913 9.8641C87.1701 9.8641 86.4227 10.1429 85.8492 10.7006C85.2756 11.2583 84.9888 12.0103 84.9888 12.9566C84.9888 13.9029 85.2756 14.6549 85.8492 15.2126Z" fill="#0ECC88"/>
<path d="M79.7696 10.2695H77.0843V14.7561C77.0843 15.2631 77.2929 15.5842 77.71 15.7194C78.1271 15.8545 78.8137 15.8968 79.7696 15.8461V19.2935C77.2842 19.5469 75.5635 19.3188 74.6075 18.6091C73.6516 17.8824 73.1736 16.5981 73.1736 14.7561V10.2695H71.0879V6.61932H73.1736V4.21123L77.0843 3.07056V6.61932H79.7696V10.2695Z" fill="#0ECC88"/>
<path d="M64.4373 6.26465C65.8625 6.26465 67.0357 6.72937 67.9569 7.6588C68.8955 8.58824 69.3648 9.87255 69.3648 11.5117V19.2937H66.0016V11.9173C66.0016 11.0724 65.7669 10.4302 65.2976 9.99085C64.8284 9.53458 64.2026 9.30644 63.4205 9.30644C62.5515 9.30644 61.8562 9.56837 61.3348 10.0922C60.8134 10.6161 60.5527 11.4019 60.5527 12.4496V19.2937H57.1895V6.61952H60.5527V8.03903C61.3696 6.85611 62.6644 6.26465 64.4373 6.26465Z" fill="#0A1330"/>
<path d="M50.7764 6.61952H54.1396V19.2937H50.7764V17.7981C49.7683 19.0317 48.3517 19.6485 46.5267 19.6485C44.7887 19.6485 43.2939 19.0064 42.0425 17.7221C40.8084 16.4209 40.1914 14.8324 40.1914 12.9566C40.1914 11.0808 40.8084 9.50078 42.0425 8.21647C43.2939 6.91525 44.7887 6.26465 46.5267 6.26465C48.3517 6.26465 49.7683 6.88146 50.7764 8.11507V6.61952ZM44.5714 15.5421C45.2492 16.2012 46.1096 16.5307 47.1525 16.5307C48.1953 16.5307 49.0557 16.2012 49.7335 15.5421C50.4287 14.8662 50.7764 14.0043 50.7764 12.9566C50.7764 11.9089 50.4287 11.0555 49.7335 10.3964C49.0557 9.72046 48.1953 9.38249 47.1525 9.38249C46.1096 9.38249 45.2492 9.72046 44.5714 10.3964C43.8935 11.0555 43.5546 11.9089 43.5546 12.9566C43.5546 14.0043 43.8935 14.8662 44.5714 15.5421Z" fill="#0A1330"/>
<path d="M18.6191 8.7994C18.9319 7.98826 19.4447 7.3799 20.1573 6.97433C20.8873 6.56875 21.6955 6.36597 22.5819 6.36597V10.0161C21.5564 9.89783 20.6352 10.1006 19.8183 10.6245C19.0188 11.1483 18.6191 12.0186 18.6191 13.2354V19.2936H15.2559V6.61945H18.6191V8.7994Z" fill="#0A1330"/>
<path d="M8.81211 6.61963H12.1753V19.2938H8.81211V17.8743C7.99521 19.0572 6.70033 19.6486 4.92748 19.6486C3.50225 19.6486 2.32035 19.1839 1.38178 18.2545C0.460593 17.3251 0 16.0407 0 14.4016V6.61963H3.3632V13.996C3.3632 14.8409 3.59784 15.4915 4.06713 15.9478C4.53641 16.3872 5.16212 16.6069 5.94426 16.6069C6.81331 16.6069 7.50854 16.3449 8.02997 15.8211C8.5514 15.2972 8.81211 14.5114 8.81211 13.4637V6.61963Z" fill="#0A1330"/>
<rect x="97.9648" y="22.186" width="3.9227" height="3.81392" rx="1.90696" fill="#0ECC88"/>
</svg>
